Patient4_TMGait_0pt4_02_left_06_EMG.mot
version=1
nRows=16
nColumns=33
inDegrees=no
endheader
time	1LAddLong	2LGlutMax	3LGlutMed	4LIliopsoas	5LSemiMemb	6LBicFemLong	7LRecFem	8LVastMed	9LVastLat	10LGasMed	11LTibAnt	12lTibPost	13LPeroneusLong	14LSol	15LExtDigLong	16LFlexDigLong	17RAddLong	18RGlutMax	19RGlutMed	20RIliopsoas	21RSemiMemb	22RBicFemLong	23RRecFem	24RVastMed	25RVastLat	26RGasMed	27RTibAnt	28RTibPost	29RPeroneusLong	30RSol	31RExtDigLong	32RFlexDigLong
8.527	0.07431	0.4158	-0.067596	-0.015106	-0.12909	0.24124	-0.47974	0.004578	-0.033569	-0.066528	0.1088	-0.004425	0.025635	0.047302	0.31372	0.00351	-0.024414	0.001221	-0.63705	0.1474	-0.082397	0.009155	0.35049	-0.028687	-0.059967	0.055695	0.062408	0.015259	1.1063	-0.56351	-0.000916	-0.008698
8.528	0.028687	0.42633	-0.14084	-0.012207	-0.22812	0.20737	-0.46188	0.000763	-0.018921	-0.02121	0.23682	-0.001373	0.13947	-0.03479	-0.089111	0.00412	-0.042267	0.003662	-0.52216	0.11368	-0.077057	0.010376	0.32303	-0.04837	-0.037689	0.06012	-0.008698	-0.21042	0.48599	-0.2478	0.003357	-0.007629
8.529	0.014038	0.34317	-0.16205	0.004272	-0.24689	0.044708	-0.41382	0.001526	-0.01297	-0.095215	0.1535	-0.003662	-0.37125	-0.088501	-0.085449	-0.008392	-0.033875	0.01236	-0.62943	0.026245	-0.082397	0.003967	0.34439	-0.001373	-0.027618	0.035706	-0.073853	-0.31174	-0.13382	-0.33234	-0.003052	-0.008545
8.53	-0.013733	0.30075	-0.13931	0.020905	-0.12024	-0.12466	-0.39856	-0.004272	-0.011444	-0.07782	0.089874	-0.009003	-0.5011	0.088196	-0.005493	-0.015564	-0.023499	-0.019836	-0.5159	-0.027924	-0.090332	0.003967	0.37125	-0.033264	-0.0383	0.011444	0.008698	0.17212	-1.0399	-0.35767	-0.001831	-0.012207
8.531	0.015717	0.23285	-0.14206	0.010529	-0.008545	-0.35675	-0.39612	-0.004578	-0.033264	-0.029144	0.065765	-0.000305	-0.19791	0.11475	-0.21423	-0.03479	-0.026245	-0.032501	-0.42404	-0.019073	-0.10223	0.017395	0.36911	-0.013885	-0.041504	0.011444	-0.028687	0.083771	-0.40665	-0.73547	-0.003662	-0.000305
8.532	0.020752	0.1503	-0.28366	0.039063	0.06134	-0.30563	-0.45105	0.002899	0.010681	-0.025635	-0.016785	-0.008545	0.16495	-0.080872	-0.35263	-0.029602	-0.014648	-0.064087	-0.38864	-0.032806	-0.095978	0.01709	0.37216	-0.030518	-0.030823	-0.004425	-0.027771	-0.094757	-0.8844	-0.8168	-0.001526	-0.006866
8.533	0.016632	0.10391	-0.28214	0.012512	0.10529	-0.23346	-0.49713	0.003357	0.077362	0.020294	-0.073547	-0.005188	0.084534	-0.098114	0.042572	-0.014038	-0.001984	-0.079651	-0.18372	-0.068817	-0.080261	0.032196	0.38589	-0.029907	-0.027466	-0.019836	-0.038757	-0.020447	-0.83466	-0.6337	-0.003204	-0.002441
8.534	0.018768	0.082855	-0.32028	-0.012665	0.065308	-0.26032	-0.52536	0.016937	0.11124	0.16632	-0.038147	-0.010071	-0.039825	-0.041809	0.00885	-0.014801	0.018616	-0.13718	-0.095062	-0.056763	-0.072937	0.022583	0.3656	-0.022888	-0.021973	-0.067444	0.005188	-0.017548	-0.43335	0.07843	0.000916	-0.004272
8.535	0.018005	0.10757	-0.20432	-0.030823	-0.011749	-0.23483	-0.62592	0.028687	0.15366	0.18921	-0.054169	-0.010529	-0.11002	0.024719	-0.093842	-0.016632	0.0383	-0.11398	-0.2211	-0.031891	-0.069733	0.036469	0.32989	-0.01358	-0.015411	-0.076294	0.045624	0.05249	-0.2684	0.53986	0	-0.024567
8.536	0.011139	0.11902	-0.001984	0.006714	-0.040436	-0.23834	-0.5658	0.032654	0.19196	0.22995	-0.11871	-0.003357	-0.15335	-0.000916	-0.17792	-0.009766	0.051117	-0.11017	-0.34088	-0.059204	-0.070343	0.033875	0.39475	0.01709	-0.024719	-0.031586	0.00946	0.14023	0.93918	0.68085	-0.000763	-0.03006
8.537	-0.003052	0.1442	0.072784	-0.01297	0.032196	-0.28107	-0.52261	0.0177	0.17395	0.31632	-0.10574	-0.005646	0.15396	-0.062103	-0.13168	-0.016327	0.065765	-0.021362	-0.23148	-0.096741	-0.080719	0.029449	0.3598	-0.010986	-0.028229	-0.011444	0.007782	0.063171	0.88852	1.0498	-0.006866	-0.020447
8.538	0.018463	0.17609	0.000916	-0.00885	0.057831	-0.13397	-0.46722	-0.005035	-0.005341	0.31189	0.007629	0.000153	0.14694	-0.18021	0.12192	-0.013275	0.056763	-0.029449	-0.28717	-0.029907	-0.085297	0.043335	0.36163	-0.001221	-0.023651	-0.020294	0.013275	-0.29068	0.24826	0.97198	-0.002747	-0.009918
8.539	-0.022125	0.18616	-0.065308	0.020905	0.024414	0.010071	-0.43472	-0.018311	-0.15564	0.27481	0.093079	0.007019	0.016785	-0.27771	0.13641	-0.006409	0.05188	-0.090485	-0.55283	-0.012665	-0.072174	0.031281	0.34943	-0.040436	-0.013733	-0.03418	-0.013275	-0.050201	0.12665	0.87021	-0.003815	-0.015411
8.54	-0.027161	0.17685	-0.043945	0.014191	0.001678	0.057068	-0.34714	-0.038757	-0.025177	-0.10346	0.085602	0.009613	0.024414	-0.25879	0.11398	-0.001221	0.033722	-0.10117	-0.49896	0.056152	-0.068512	0.055847	0.28595	-0.012054	-0.014191	-0.019226	-0.053558	0.11185	0.2713	0.28702	-0.003662	0.005798
8.541	-0.011749	0.19165	-0.098419	0.030518	-0.017395	0.076141	-0.25879	-0.030212	-0.055389	-0.15381	0.011749	0.018768	0.12589	-0.1001	-0.026398	-0.01236	-0.01236	-0.19638	0.13336	0.022278	-0.080719	0.034332	0.29022	-0.004425	-0.015564	-0.006104	-0.076599	0.19638	0.354	-0.10696	-0.00061	-0.009003
8.542	-0.008698	0.18875	-0.099335	-0.005188	-0.048065	0.050964	-0.1831	-0.027771	-0.002289	-0.056152	-0.048065	0.021057	-0.018768	0.043945	0.18662	-0.001373	-0.019836	-0.30594	-0.007019	-0.013885	-0.087128	0.016327	0.22858	-0.048218	-0.011597	-0.014648	-0.041199	0.11215	0.28259	-0.14694	-0.002899	-0.006104
